<svg width="800" height="800" xmlns="http://www.w3.org/2000/svg" stroke="null" style="vector-effect: non-scaling-stroke;">

 <g stroke="null">
  <title stroke="null">Layer 1</title>
  <path stroke="#131313" id="svg_8" d="m537.39231,319.61197c0,0 24.94922,-88.79632 0,-118.87576c-24.97861,-30.07944 -34.94067,-50.11553 -89.86422,-64.45955s-34.91128,-11.48534 -74.84767,-10.01805c-39.93639,1.44199 -73.23141,20.03609 -73.23141,30.05414c0,0 -24.94922,1.44199 -34.91128,10.04334c-9.99144,8.60135 -26.62426,48.67354 -26.62426,58.71688s8.31641,77.36158 16.63282,91.6803l-9.90328,2.85868c-8.31641,83.05365 33.26563,93.097 33.26563,93.097c14.95778,77.36158 29.94494,44.42346 29.94494,64.45955s-14.98717,12.90203 -14.98717,12.90203s-13.28274,31.49613 -46.54837,42.95617c-33.26563,11.43474 -217.93102,73.01031 -232.94757,85.91234c-15.01655,12.92733 -13.31213,73.0609 -13.31213,73.0609l791.8807,0c0,0 1.73381,-60.13358 -13.28274,-73.0609c-15.04594,-12.92733 -199.71133,-74.4776 -232.97696,-85.91234c-33.26563,-11.46004 -46.54837,-42.95617 -46.54837,-42.95617s-14.98717,7.13406 -14.98717,-12.90203s14.98717,12.90203 29.97433,-64.45955c0,0 41.55265,-10.04334 33.26563,-93.097l-9.99144,0z" opacity="undefined" fill-opacity="null" stroke-opacity="null" stroke-dasharray="null" stroke-width="15" fill="none"/>
 </g>
</svg>