<svg width="24" height="24" viewBox="0 0 24 24" fill="none" xmlns="http://www.w3.org/2000/svg">
<path d="M23.7793 17.0685C23.4871 16.6436 23.0116 16.6436 22.7184 17.0685L20.4964 20.2877V5.43863C20.4964 2.43981 18.812 0.000725358 16.7431 0.000725358H10.888C10.4737 0.000725358 10.1374 0.487961 10.1374 1.08831C10.1374 1.68865 10.4737 2.17589 10.888 2.17589H16.7431C17.9842 2.17589 18.9951 3.64049 18.9951 5.43863V20.2877L16.7732 17.0685C16.4799 16.6436 16.0045 16.6436 15.7122 17.0685C15.42 17.4934 15.418 18.1822 15.7122 18.6056L19.2153 23.681C19.3604 23.8941 19.5526 24 19.7458 24C19.9389 24 20.1291 23.8956 20.2762 23.681L23.7793 18.6056C24.0736 18.1822 24.0736 17.4934 23.7793 17.0685ZM13.11 21.8248H7.25485C6.01376 21.8248 5.00288 20.3602 5.00288 18.5621V3.713L7.22482 6.93224C7.37295 7.1454 7.56512 7.25126 7.75729 7.25126C7.94946 7.25126 8.14162 7.1454 8.28775 6.93224C8.58101 6.50736 8.58101 5.81856 8.28775 5.39512L4.78469 0.319749C4.49143 -0.106583 4.01601 -0.106583 3.72376 0.319749L0.220693 5.39512C-0.0735644 5.81856 -0.0735644 6.50736 0.220693 6.93224C0.514951 7.35712 0.988365 7.35712 1.28162 6.93224L3.50357 3.713V18.5621C3.50357 21.5609 5.18804 24 7.25685 24H13.112C13.5263 24 13.8626 23.5128 13.8626 22.9124C13.8626 22.3121 13.5253 21.8248 13.112 21.8248H13.11Z" fill="#6B6868"/>
</svg>
