<svg width="47" height="47" viewBox="0 0 47 47" fill="none" xmlns="http://www.w3.org/2000/svg">
<path d="M42.1629 40.0871L34.9954 32.9196C37.5902 29.845 39.1667 25.8774 39.1667 21.5417C39.1667 11.8087 31.2746 3.91666 21.5417 3.91666C11.8087 3.91666 3.91666 11.8087 3.91666 21.5417C3.91666 31.2746 11.8087 39.1667 21.5417 39.1667C25.8794 39.1667 29.845 37.5922 32.9157 34.9954L40.0832 42.1629C40.371 42.4488 40.749 42.5937 41.1211 42.5937C41.4932 42.5937 41.875 42.4508 42.159 42.1629C42.7367 41.5891 42.7367 40.6609 42.1629 40.0871ZM6.85416 21.5417C6.85416 13.4439 13.4439 6.85416 21.5417 6.85416C29.6394 6.85416 36.2292 13.4439 36.2292 21.5417C36.2292 29.6394 29.6394 36.2292 21.5417 36.2292C13.4439 36.2292 6.85416 29.6394 6.85416 21.5417Z" fill="#E7BD70"/>
</svg>
